<svg xmlns="http://www.w3.org/2000/svg" width="119" height="119" viewBox="0 0 119 119">
  <g id="Group_3" data-name="Group 3" transform="translate(-367.51 120.886)">
    <path id="Path_4" data-name="Path 4" d="M1.2-16.5H6.32a6.224,6.224,0,0,1,3.7.99A3.679,3.679,0,0,1,11.4-12.3,3.673,3.673,0,0,1,9.34-8.76,3.818,3.818,0,0,1,12.86-4.6a4.22,4.22,0,0,1-1.44,3.34A5.809,5.809,0,0,1,7.46,0H1.2Zm3.76,6.46h.3a3.261,3.261,0,0,0,1.88-.44,1.643,1.643,0,0,0,.62-1.44q0-1.68-2.5-1.68h-.3Zm0,7.14H6.14Q8.9-2.9,8.9-4.74a1.787,1.787,0,0,0-.69-1.58A3.638,3.638,0,0,0,6.14-6.8H4.96Z" transform="translate(419 -103.903) rotate(-1)"/>
    <path id="Path_5" data-name="Path 5" d="M.46-8.26A8.313,8.313,0,0,1,2.9-14.32,7.95,7.95,0,0,1,8.78-16.8a7.924,7.924,0,0,1,5.88,2.47,8.34,8.34,0,0,1,2.42,6.07A8.439,8.439,0,0,1,14.7-2.17,7.887,7.887,0,0,1,8.78.3,7.916,7.916,0,0,1,2.81-2.15,8.479,8.479,0,0,1,.46-8.26Zm4.06,0a6.722,6.722,0,0,0,.4,2.37,3.953,3.953,0,0,0,1.4,1.81,4.021,4.021,0,0,0,2.46.74,3.7,3.7,0,0,0,3.17-1.44,5.671,5.671,0,0,0,1.07-3.48,5.61,5.61,0,0,0-1.09-3.47,3.7,3.7,0,0,0-3.15-1.45,3.734,3.734,0,0,0-3.15,1.45A5.541,5.541,0,0,0,4.52-8.26Z" transform="matrix(0.951, 0.309, -0.309, 0.951, 431.741, -105.05)"/>
    <path id="Path_6" data-name="Path 6" d="M.46-8.26A8.313,8.313,0,0,1,2.9-14.32,7.95,7.95,0,0,1,8.78-16.8a7.924,7.924,0,0,1,5.88,2.47,8.34,8.34,0,0,1,2.42,6.07A8.439,8.439,0,0,1,14.7-2.17,7.887,7.887,0,0,1,8.78.3,7.916,7.916,0,0,1,2.81-2.15,8.479,8.479,0,0,1,.46-8.26Zm4.06,0a6.722,6.722,0,0,0,.4,2.37,3.953,3.953,0,0,0,1.4,1.81,4.021,4.021,0,0,0,2.46.74,3.7,3.7,0,0,0,3.17-1.44,5.671,5.671,0,0,0,1.07-3.48,5.61,5.61,0,0,0-1.09-3.47,3.7,3.7,0,0,0-3.15-1.45,3.734,3.734,0,0,0-3.15,1.45A5.541,5.541,0,0,0,4.52-8.26Z" transform="matrix(0.799, 0.602, -0.602, 0.799, 446.461, -100.549)"/>
    <path id="Path_7" data-name="Path 7" d="M16.22,0H11.04L4.96-7V0H1.2V-16.5H4.96v6.74l5.66-6.74h4.56L8.54-8.68Z" transform="translate(459.013 -90.915) rotate(56)"/>
    <path id="Path_8" data-name="Path 8" d="M4.96-10.24V0H1.2V-16.5H4.96L11.52-6.26h.04V-16.5h3.76V0H11.56L5-10.24Z" transform="translate(470 -71) rotate(90)"/>
    <path id="Path_9" data-name="Path 9" d="M.46-8.26A8.313,8.313,0,0,1,2.9-14.32,7.95,7.95,0,0,1,8.78-16.8a7.924,7.924,0,0,1,5.88,2.47,8.34,8.34,0,0,1,2.42,6.07A8.439,8.439,0,0,1,14.7-2.17,7.887,7.887,0,0,1,8.78.3,7.916,7.916,0,0,1,2.81-2.15,8.479,8.479,0,0,1,.46-8.26Zm4.06,0a6.722,6.722,0,0,0,.4,2.37,3.953,3.953,0,0,0,1.4,1.81,4.021,4.021,0,0,0,2.46.74,3.7,3.7,0,0,0,3.17-1.44,5.671,5.671,0,0,0,1.07-3.48,5.61,5.61,0,0,0-1.09-3.47,3.7,3.7,0,0,0-3.15-1.45,3.734,3.734,0,0,0-3.15,1.45A5.541,5.541,0,0,0,4.52-8.26Z" transform="matrix(-0.438, 0.899, -0.899, -0.438, 472.002, -56)"/>
    <path id="Path_10" data-name="Path 10" d="M13.86,0,11.22-9.26,8.58,0H4.4L-.3-16.5H3.88L6.7-5.18h.1l3-11.32h2.84l3,11.32h.1L18.56-16.5h4.16L18.02,0Z" transform="translate(465.958 -41.538) rotate(132)"/>
    <path id="Path_15" data-name="Path 15" d="M1.2-16.5H6.32a6.224,6.224,0,0,1,3.7.99A3.679,3.679,0,0,1,11.4-12.3,3.673,3.673,0,0,1,9.34-8.76,3.818,3.818,0,0,1,12.86-4.6a4.22,4.22,0,0,1-1.44,3.34A5.809,5.809,0,0,1,7.46,0H1.2Zm3.76,6.46h.3a3.261,3.261,0,0,0,1.88-.44,1.643,1.643,0,0,0,.62-1.44q0-1.68-2.5-1.68h-.3Zm0,7.14H6.14Q8.9-2.9,8.9-4.74a1.787,1.787,0,0,0-.69-1.58A3.638,3.638,0,0,0,6.14-6.8H4.96Z" transform="translate(435.703 -19.333) rotate(177)"/>
    <path id="Path_13" data-name="Path 13" d="M.46-8.26A8.313,8.313,0,0,1,2.9-14.32,7.95,7.95,0,0,1,8.78-16.8a7.924,7.924,0,0,1,5.88,2.47,8.34,8.34,0,0,1,2.42,6.07A8.439,8.439,0,0,1,14.7-2.17,7.887,7.887,0,0,1,8.78.3,7.916,7.916,0,0,1,2.81-2.15,8.479,8.479,0,0,1,.46-8.26Zm4.06,0a6.722,6.722,0,0,0,.4,2.37,3.953,3.953,0,0,0,1.4,1.81,4.021,4.021,0,0,0,2.46.74,3.7,3.7,0,0,0,3.17-1.44,5.671,5.671,0,0,0,1.07-3.48,5.61,5.61,0,0,0-1.09-3.47,3.7,3.7,0,0,0-3.15-1.45,3.734,3.734,0,0,0-3.15,1.45A5.541,5.541,0,0,0,4.52-8.26Z" transform="translate(407.43 -21.928) rotate(-140)"/>
    <path id="Path_14" data-name="Path 14" d="M.46-8.26A8.313,8.313,0,0,1,2.9-14.32,7.95,7.95,0,0,1,8.78-16.8a7.924,7.924,0,0,1,5.88,2.47,8.34,8.34,0,0,1,2.42,6.07A8.439,8.439,0,0,1,14.7-2.17,7.887,7.887,0,0,1,8.78.3,7.916,7.916,0,0,1,2.81-2.15,8.479,8.479,0,0,1,.46-8.26Zm4.06,0a6.722,6.722,0,0,0,.4,2.37,3.953,3.953,0,0,0,1.4,1.81,4.021,4.021,0,0,0,2.46.74,3.7,3.7,0,0,0,3.17-1.44,5.671,5.671,0,0,0,1.07-3.48,5.61,5.61,0,0,0-1.09-3.47,3.7,3.7,0,0,0-3.15-1.45,3.734,3.734,0,0,0-3.15,1.45A5.541,5.541,0,0,0,4.52-8.26Z" transform="translate(423.215 -18.128) rotate(-163)"/>
    <path id="Path_11" data-name="Path 11" d="M16.22,0H11.04L4.96-7V0H1.2V-16.5H4.96v6.74l5.66-6.74h4.56L8.54-8.68Z" transform="translate(393.791 -32.227) rotate(-120)"/>
    <path id="Path_12" data-name="Path 12" d="M4.96-10.24V0H1.2V-16.5H4.96L11.52-6.26h.04V-16.5h3.76V0H11.56L5-10.24Z" transform="translate(384.01 -52.904) rotate(-90)"/>
    <path id="Path_2" data-name="Path 2" d="M.46-8.26A8.313,8.313,0,0,1,2.9-14.32,7.95,7.95,0,0,1,8.78-16.8a7.924,7.924,0,0,1,5.88,2.47,8.34,8.34,0,0,1,2.42,6.07A8.439,8.439,0,0,1,14.7-2.17,7.887,7.887,0,0,1,8.78.3,7.916,7.916,0,0,1,2.81-2.15,8.479,8.479,0,0,1,.46-8.26Zm4.06,0a6.722,6.722,0,0,0,.4,2.37,3.953,3.953,0,0,0,1.4,1.81,4.021,4.021,0,0,0,2.46.74,3.7,3.7,0,0,0,3.17-1.44,5.671,5.671,0,0,0,1.07-3.48,5.61,5.61,0,0,0-1.09-3.47,3.7,3.7,0,0,0-3.15-1.45,3.734,3.734,0,0,0-3.15,1.45A5.541,5.541,0,0,0,4.52-8.26Z" transform="matrix(0.326, -0.946, 0.946, 0.326, 383.248, -68.106)"/>
    <path id="Path_3" data-name="Path 3" d="M13.86,0,11.22-9.26,8.58,0H4.4L-.3-16.5H3.88L6.7-5.18h.1l3-11.32h2.84l3,11.32h.1L18.56-16.5h4.16L18.02,0Z" transform="translate(387.679 -81.338) rotate(-47)"/>
  </g>
</svg>
