<svg width="104" height="105" viewBox="0 0 104 105" fill="none" xmlns="http://www.w3.org/2000/svg">
<path d="M42.852 102.53L38.8776 101.539C37.677 101.24 36.7842 100.743 36.199 100.047C35.6113 99.362 35.4607 98.445 35.7471 97.2962C36.067 96.0128 36.8284 95.2297 38.0312 94.9469C36.2896 94.172 35.6471 92.8685 36.1038 91.0366C36.3722 89.9602 36.9602 89.1889 37.8679 88.7226C38.7757 88.2563 39.8816 88.1858 41.1857 88.5109L46.045 89.7223L42.852 102.53ZM41.1834 96.7881L40.9505 96.7301C40.2985 96.5675 39.7837 96.5601 39.4061 96.7078C39.0284 96.8555 38.7751 97.1881 38.6461 97.7056C38.4294 98.575 38.9679 99.171 40.2616 99.4935L40.4945 99.5515L41.1834 96.7881ZM42.5651 91.2458L41.6491 91.0174C40.2209 90.6613 39.388 90.9594 39.1506 91.9116C39.0087 92.4808 39.0879 92.9348 39.3883 93.2735C39.6782 93.6096 40.1803 93.8667 40.8944 94.0448L41.8104 94.2731L42.5651 91.2458Z" fill="black"/>
<path d="M31.5344 92.094C30.4615 93.6734 29.0153 94.6446 27.1956 95.0074C25.3759 95.3703 23.7072 95.0363 22.1896 94.0054C20.6631 92.9685 19.7377 91.5404 19.4133 89.721C19.0828 87.9105 19.4571 86.2111 20.5359 84.6229C21.6208 83.0259 23.0598 82.0369 24.853 81.656C26.6402 81.284 28.3147 81.6284 29.8765 82.6893C31.4735 83.7741 32.427 85.2084 32.737 86.9921C33.0321 88.7787 32.6312 90.4793 31.5344 92.094ZM28.8476 90.2689C29.2372 89.6954 29.5056 89.1105 29.6528 88.5141C29.794 87.9266 29.7549 87.3198 29.5355 86.6936C29.3161 86.0675 28.8843 85.5356 28.2402 85.0981C27.3137 84.4688 26.4009 84.3129 25.5017 84.6305C24.5937 84.9422 23.834 85.548 23.2227 86.448C22.6173 87.3392 22.3415 88.2672 22.3953 89.2322C22.4342 90.1999 22.9081 90.9925 23.8169 91.6098C24.7169 92.2212 25.6327 92.3726 26.5644 92.0642C27.4812 91.7585 28.2423 91.1601 28.8476 90.2689Z" fill="black"/>
<path d="M17.8349 81.3074C16.2405 82.3579 14.5331 82.7036 12.7126 82.3447C10.8922 81.9857 9.47724 81.0402 8.46783 79.5082C7.45256 77.9673 7.14211 76.2941 7.53649 74.4886C7.92196 72.689 8.91634 71.261 10.5196 70.2046C12.1318 69.1424 13.8393 68.7774 15.6422 69.1097C17.4361 69.4478 18.8525 70.4051 19.8912 71.9817C20.9534 73.5939 21.2875 75.2835 20.8933 77.0505C20.4844 78.8145 19.4649 80.2334 17.8349 81.3074ZM16.0479 78.5952C16.6268 78.2137 17.0981 77.7754 17.4617 77.2804C17.8164 76.7912 18.0119 76.2154 18.048 75.5529C18.0841 74.8904 17.888 74.234 17.4596 73.5838C16.8434 72.6486 16.0591 72.1562 15.1067 72.1066C14.1485 72.0482 13.2152 72.3183 12.3066 72.9169C11.407 73.5096 10.7979 74.2622 10.4794 75.1746C10.1461 76.084 10.2816 76.9974 10.8861 77.9149C11.4847 78.8234 12.2734 79.3128 13.2523 79.3832C14.2164 79.4506 15.1483 79.1879 16.0479 78.5952Z" fill="black"/>
<path d="M13.2286 52.4502L14.0951 56.5026L9.63582 62.43L15.1121 61.2591L15.741 64.2006L2.83272 66.9605L2.2038 64.019L7.47662 62.8916L1.25707 59.5911L0.494337 56.0237L7.72271 59.9103L13.2286 52.4502Z" fill="black"/>
<path d="M8.03135 37.9987L15.7343 40.7868L14.7105 43.6152L2.29857 39.1227L3.32233 36.2942L12.8114 34.1476L12.8223 34.1176L5.11935 31.3294L6.14311 28.501L18.5551 32.9936L17.5313 35.822L8.04224 37.9686L8.03135 37.9987Z" fill="black"/>
<path d="M14.9807 26.7194C13.5566 25.4475 12.7848 23.8858 12.6652 22.0341C12.5456 20.1825 13.0968 18.5725 14.319 17.2041C15.5482 15.8278 17.086 15.0989 18.9322 15.0174C20.7705 14.9287 22.4057 15.5239 23.8376 16.8029C25.2776 18.089 26.068 19.6459 26.2089 21.4737C26.3419 23.2944 25.7796 24.9088 24.5219 26.3169C23.2358 27.7568 21.6883 28.5127 19.8792 28.5846C18.0694 28.6414 16.4365 28.0197 14.9807 26.7194ZM17.1443 24.297C17.6614 24.7588 18.2058 25.102 18.7775 25.3266C19.3412 25.5441 19.9479 25.5854 20.5976 25.4505C21.2472 25.3157 21.8314 24.9578 22.3501 24.3771C23.0961 23.5418 23.3711 22.6575 23.1749 21.7243C22.9858 20.7831 22.4855 19.9501 21.674 19.2253C20.8705 18.5077 19.987 18.1118 19.0234 18.0378C18.0589 17.9487 17.2108 18.3138 16.4789 19.1332C15.7541 19.9447 15.4832 20.8325 15.666 21.7967C15.848 22.7459 16.3408 23.5793 17.1443 24.297Z" fill="black"/>
<path d="M39.9882 16.0025L35.0338 10.1039L36.1329 17.7283L33.0807 19.0945L24.2557 8.58277L27.3079 7.21651L33.067 14.5604L33.14 14.5277L31.6305 5.28151L33.7043 4.35324L39.5948 11.6383L39.6678 11.6056L38.0269 2.41825L41.0645 1.05852L43.0258 14.6427L39.9882 16.0025Z" fill="black"/>
<path d="M66.2919 3.0545L70.1362 4.46813C71.2975 4.89516 72.1316 5.48597 72.6383 6.24054C73.1487 6.98511 73.1995 7.91302 72.7909 9.02427C72.3344 10.2657 71.4931 10.9621 70.2668 11.1135C71.9146 12.0718 72.4128 13.4369 71.7612 15.2089C71.3783 16.2501 70.7105 16.9535 69.7578 17.3191C68.8051 17.6848 67.698 17.6357 66.4366 17.1718L61.7363 15.4435L66.2919 3.0545ZM67.3315 8.9431L67.5567 9.02593C68.1874 9.25785 68.6985 9.32075 69.0898 9.21462C69.4811 9.1085 69.7689 8.80515 69.9529 8.30459C70.2621 7.46364 69.7911 6.81308 68.5397 6.35292L68.3144 6.27009L67.3315 8.9431ZM65.3601 14.3041L66.2461 14.6299C67.6277 15.138 68.4878 14.9314 68.8265 14.0104C69.029 13.4598 68.9992 12.9999 68.7371 12.6308C68.4851 12.2654 68.0137 11.9556 67.3229 11.7016L66.4369 11.3758L65.3601 14.3041Z" fill="black"/>
<path d="M76.418 14.6504C77.6549 13.196 79.1975 12.3864 81.0457 12.2219C82.8939 12.0574 84.5168 12.5694 85.9144 13.758C87.3202 14.9535 88.0862 16.4731 88.2125 18.3168C88.3458 20.1524 87.7905 21.8015 86.5466 23.2641C85.2958 24.7348 83.7586 25.5628 81.9347 25.7481C80.1178 25.9252 78.4902 25.4022 77.052 24.1791C75.5813 22.9284 74.788 21.3996 74.6722 19.5929C74.5715 17.7849 75.1534 16.1374 76.418 14.6504ZM78.8923 16.7546C78.4431 17.2828 78.1132 17.8354 77.9025 18.4124C77.6988 18.9812 77.6722 19.5887 77.8228 20.2349C77.9734 20.8811 78.3453 21.4564 78.9385 21.9608C79.7917 22.6864 80.6824 22.9398 81.6106 22.721C82.5469 22.5091 83.3675 21.9887 84.0723 21.1599C84.7703 20.3392 85.1446 19.4463 85.1952 18.4812C85.2609 17.5149 84.8752 16.6759 84.0383 15.9641C83.2095 15.2592 82.3153 15.0099 81.3558 15.2161C80.4114 15.4211 79.5902 15.9339 78.8923 16.7546Z" fill="black"/>
<path d="M88.8743 26.8516C90.5727 25.9792 92.3074 25.8196 94.0786 26.3728C95.8497 26.926 97.1544 28.0185 97.9927 29.6505C98.8359 31.2919 98.9641 32.9888 98.3773 34.7413C97.8 36.4888 96.6574 37.8012 94.9495 38.6785C93.2322 39.5606 91.4953 39.7394 89.7388 39.2146C87.9917 38.685 86.6869 37.5805 85.8242 35.9011C84.9421 34.1838 84.7922 32.468 85.3746 30.7538C85.9714 29.0442 87.138 27.7435 88.8743 26.8516ZM90.3584 29.7407C89.7417 30.0575 89.2259 30.4424 88.811 30.8953C88.4056 31.3434 88.1492 31.8948 88.0419 32.5495C87.9345 33.2043 88.0587 33.878 88.4145 34.5706C88.9262 35.5668 89.6528 36.1409 90.5943 36.2929C91.5406 36.4543 92.4977 36.2865 93.4655 35.7894C94.4238 35.2971 95.1104 34.6146 95.5255 33.7418C95.955 32.8737 95.9187 31.951 95.4167 30.9737C94.9196 30.0059 94.1882 29.4343 93.2226 29.2587C92.2714 29.0878 91.3167 29.2485 90.3584 29.7407Z" fill="black"/>
<path d="M90.3416 56.0372L89.9172 51.915L94.9897 46.5031L89.4192 47.0765L89.1111 44.0844L102.242 42.7326L102.55 45.7248L97.1861 46.277L103.013 50.229L103.387 53.8579L96.6199 49.2144L90.3416 56.0372Z" fill="black"/>
<path d="M93.95 70.965L86.5927 67.3624L87.9155 64.6609L99.7706 70.4658L98.4478 73.1673L88.7826 74.278L88.7685 74.3068L96.1258 77.9093L94.803 80.6109L82.9479 74.8059L84.2707 72.1044L93.936 70.9937L93.95 70.965Z" fill="black"/>
<path d="M85.8249 81.429C87.1034 82.847 87.7023 84.4829 87.6215 86.3367C87.5408 88.1904 86.8191 89.7316 85.4565 90.9601C84.086 92.1959 82.4786 92.7547 80.6343 92.6366C78.7972 92.5265 77.2358 91.7585 75.9501 90.3325C74.6572 88.8986 74.0393 87.2655 74.0963 85.4332C74.1605 83.6088 74.8937 82.0645 76.2959 80.8002C77.7297 79.5073 79.3498 78.9227 81.156 79.0464C82.9614 79.1851 84.5177 79.9793 85.8249 81.429ZM83.4126 83.604C82.9483 83.089 82.4441 82.6891 81.9 82.4042C81.363 82.1272 80.7643 82.0207 80.1039 82.0847C79.4435 82.1487 78.8241 82.4415 78.2458 82.9629C77.414 83.7129 77.0453 84.5624 77.1397 85.5113C77.2262 86.4674 77.6338 87.3495 78.3623 88.1575C79.0838 88.9576 79.9195 89.4465 80.8695 89.624C81.8187 89.8166 82.7013 89.545 83.5172 88.8093C84.3253 88.0808 84.6904 87.2273 84.6126 86.249C84.534 85.2858 84.134 84.4041 83.4126 83.604Z" fill="black"/>
<path d="M59.8074 89.3865L64.0967 95.785L63.8264 88.0865L67.0081 87.0574L74.648 98.4596L71.4663 99.4887L66.5327 91.5665L66.4566 91.5912L66.9601 100.946L64.7984 101.645L59.7278 93.7676L59.6517 93.7922L60.2923 103.103L57.1258 104.127L56.6409 90.4107L59.8074 89.3865Z" fill="black"/>
</svg>
