<svg width="104" height="105" viewBox="0 0 104 105" fill="none" xmlns="http://www.w3.org/2000/svg">
<path d="M42.8512 103.171L38.8783 102.174C37.6781 101.873 36.7852 101.374 36.1996 100.677C35.6114 99.991 35.4597 99.0732 35.7444 97.9239C36.0625 96.6401 36.8224 95.8575 38.024 95.576C36.2826 94.7983 35.6389 93.4931 36.0929 91.6605C36.3597 90.5838 36.9463 89.8127 37.8529 89.3472C38.7594 88.8818 39.8645 88.8126 41.1681 89.1396L46.0256 90.3581L42.8512 103.171ZM41.1764 97.4225L40.9436 97.3641C40.2918 97.2006 39.7773 97.1925 39.4002 97.3399C39.023 97.4872 38.7703 97.8197 38.642 98.3374C38.4266 99.2071 38.9655 99.8041 40.2587 100.129L40.4915 100.187L41.1764 97.4225ZM42.55 91.8782L41.6344 91.6485C40.2067 91.2903 39.3748 91.5875 39.1388 92.5401C38.9977 93.1095 39.0774 93.5639 39.378 93.9032C39.6682 94.2399 40.1702 94.4978 40.8841 94.6769L41.7997 94.9066L42.55 91.8782Z" fill="black"/>
<path d="M31.5174 92.6915C30.4491 94.2739 29.0077 95.2461 27.1933 95.6081C25.3789 95.97 23.7143 95.6333 22.1997 94.598C20.6762 93.5567 19.7517 92.1238 19.4263 90.2992C19.0948 88.4835 19.4662 86.78 20.5405 85.1886C21.6208 83.5885 23.0549 82.5984 24.8429 82.2184C26.6249 81.8473 28.2952 82.1944 29.8539 83.2598C31.4478 84.3493 32.4003 85.7884 32.7113 87.5772C33.0075 89.3689 32.6095 91.0736 31.5174 92.6915ZM28.8359 90.8586C29.2238 90.284 29.4909 89.6978 29.637 89.1C29.7772 88.5111 29.7376 87.9026 29.5181 87.2745C29.2986 86.6464 28.8675 86.1127 28.2246 85.6733C27.3 85.0413 26.3894 84.8841 25.493 85.2016C24.5877 85.5131 23.8307 86.1197 23.222 87.0215C22.6192 87.9144 22.3451 88.8446 22.3997 89.8122C22.4396 90.7826 22.913 91.5778 23.8201 92.1978C24.7183 92.8117 25.6318 92.9645 26.5606 92.6562C27.4747 92.3507 28.2331 91.7516 28.8359 90.8586Z" fill="black"/>
<path d="M17.8241 81.8202C16.2327 82.8752 14.5294 83.2238 12.7141 82.866C10.8989 82.5082 9.4887 81.5618 8.48366 80.0269C7.47278 78.4831 7.16502 76.8058 7.56039 74.9952C7.94687 73.1905 8.94024 71.7576 10.5405 70.6967C12.1497 69.6299 13.8531 69.262 15.6509 69.5931C17.4397 69.93 18.8513 70.8883 19.8855 72.4678C20.9432 74.083 21.2744 75.7767 20.8793 77.5487C20.4694 79.3178 19.4511 80.7416 17.8241 81.8202ZM16.0448 79.1029C16.6227 78.7198 17.0933 78.2799 17.4565 77.7831C17.8108 77.2923 18.0064 76.7147 18.0431 76.0504C18.0799 75.3862 17.885 74.7283 17.4585 74.0769C16.8449 73.1399 16.0633 72.6471 15.1135 72.5985C14.1578 72.541 13.2266 72.8128 12.3198 73.414C11.4219 74.0093 10.8135 74.7645 10.4948 75.6797C10.1613 76.5919 10.2955 77.5075 10.8974 78.4267C11.4934 79.3369 12.2795 79.8267 13.2557 79.8962C14.2172 79.9626 15.1469 79.6982 16.0448 79.1029Z" fill="black"/>
<path d="M13.241 52.8508L14.1023 56.9043L9.63849 62.8399L15.1132 61.6621L15.7384 64.6044L2.83369 67.3807L2.20849 64.4384L7.47988 63.3043L1.26737 60.0093L0.509146 56.4409L7.72928 60.3211L13.241 52.8508Z" fill="black"/>
<path d="M8.02002 38.2521L15.7174 41.0555L14.6992 43.886L2.29624 39.3687L3.31439 36.5383L12.7881 34.4035L12.799 34.3734L5.10158 31.5699L6.11974 28.7395L18.5227 33.2567L17.5046 36.0872L8.03085 38.222L8.02002 38.2521Z" fill="black"/>
<path d="M14.9646 26.8708C13.5445 25.5945 12.7745 24.0277 12.6546 22.1703C12.5347 20.313 13.0837 18.6983 14.3017 17.3261C15.5267 15.9461 17.0594 15.2155 18.9 15.1343C20.7326 15.046 22.363 15.6436 23.791 16.927C25.227 18.2175 26.0155 19.7795 26.1566 21.6129C26.2898 23.4392 25.7298 25.0584 24.4764 26.4703C23.1948 27.9142 21.6522 28.6719 19.8488 28.7434C18.0445 28.7998 16.4164 28.1756 14.9646 26.8708ZM17.1207 24.4417C17.6364 24.9051 18.1793 25.2496 18.7493 25.475C19.3114 25.6934 19.9163 25.735 20.5638 25.6C21.2114 25.4649 21.7937 25.1062 22.3106 24.5239C23.0541 23.6862 23.3279 22.7994 23.1319 21.8632C22.9431 20.9191 22.4441 20.0834 21.6348 19.3561C20.8336 18.636 19.9526 18.2386 18.9919 18.164C18.0304 18.0743 17.185 18.4403 16.4556 19.2619C15.7334 20.0756 15.4636 20.9661 15.6462 21.9333C15.8279 22.8854 16.3195 23.7215 17.1207 24.4417Z" fill="black"/>
<path d="M39.9482 16.0383L35.0114 10.1372L36.0968 17.773L33.0478 19.1463L24.2542 8.6301L27.3032 7.25676L33.0411 14.6044L33.1141 14.5716L31.6214 5.31175L33.693 4.37867L39.5622 11.6672L39.6351 11.6343L38.0111 2.43366L41.0455 1.0669L42.9826 14.6715L39.9482 16.0383Z" fill="black"/>
<path d="M66.2927 3.06695L70.1342 4.48832C71.2947 4.9177 72.1285 5.51055 72.6357 6.26688C73.1466 7.0132 73.1988 7.94239 72.7924 9.05446C72.3384 10.2968 71.4992 10.9928 70.2747 11.1425C71.9219 12.1046 72.4215 13.4722 71.7734 15.2455C71.3927 16.2875 70.7268 16.9908 69.7759 17.3554C68.8249 17.7201 67.7192 17.6692 66.4587 17.2029L61.7619 15.465L66.2927 3.06695ZM67.34 8.9648L67.565 9.04808C68.1953 9.28128 68.7057 9.34504 69.0964 9.23938C69.4871 9.13371 69.7739 8.83042 69.957 8.32948C70.2645 7.48792 69.7931 6.83579 68.5426 6.37311L68.3175 6.28982L67.34 8.9648ZM65.3794 14.3298L66.2647 14.6574C67.6452 15.1682 68.5039 14.9627 68.8407 14.041C69.0421 13.49 69.0117 13.0295 68.7494 12.6595C68.4971 12.2932 68.0259 11.9823 67.3356 11.7269L66.4503 11.3993L65.3794 14.3298Z" fill="black"/>
<path d="M76.4345 14.7184C77.667 13.2601 79.2045 12.4489 81.047 12.2848C82.8896 12.1207 84.5078 12.6351 85.9018 13.8279C87.3038 15.0277 88.0683 16.5523 88.1951 18.4016C88.3289 20.2428 87.7761 21.8966 86.5367 23.363C85.2904 24.8376 83.7582 25.6673 81.94 25.8522C80.1287 26.029 78.5058 25.5036 77.0713 24.2761C75.6044 23.0209 74.8128 21.4871 74.6965 19.6749C74.5951 17.8614 75.1745 16.2092 76.4345 14.7184ZM78.9023 16.8301C78.4548 17.3597 78.1261 17.9138 77.9164 18.4924C77.7136 19.0629 77.6874 19.6722 77.8379 20.3204C77.9883 20.9686 78.3594 21.5458 78.951 22.0521C79.8019 22.7802 80.6901 23.0348 81.6154 22.8158C82.5487 22.6038 83.3666 22.0822 84.0689 21.2513C84.7643 20.4285 85.137 19.5331 85.187 18.5651C85.252 17.5958 84.8671 16.7541 84.0324 16.0398C83.2057 15.3324 82.3142 15.0819 81.3577 15.2882C80.4162 15.4933 79.5977 16.0073 78.9023 16.8301Z" fill="black"/>
<path d="M88.8821 27.0105C90.5782 26.1338 92.3096 25.9713 94.0763 26.523C95.843 27.0747 97.1434 28.1676 97.9776 29.8016C98.8167 31.4452 98.9421 33.1454 98.3539 34.9023C97.7753 36.6542 96.6331 37.971 94.9275 38.8526C93.2124 39.7391 91.4787 39.9207 89.7266 39.3975C87.984 38.8694 86.6834 37.7646 85.825 36.083C84.9471 34.3635 84.8001 32.6444 85.3838 30.9258C85.9819 29.2119 87.148 27.9067 88.8821 27.0105ZM90.3589 29.9033C89.7429 30.2217 89.2276 30.6081 88.8129 31.0626C88.4077 31.5122 88.1511 32.0651 88.0429 32.7213C87.9348 33.3775 88.0578 34.0524 88.4119 34.7459C88.9211 35.7435 89.6454 36.3177 90.5847 36.4685C91.5288 36.6289 92.4841 36.4593 93.4507 35.9598C94.4077 35.4651 95.094 34.7802 95.5095 33.905C95.9393 33.0345 95.9045 32.1099 95.405 31.1314C94.9103 30.1623 94.1813 29.5906 93.2179 29.4161C92.2689 29.2462 91.3159 29.4086 90.3589 29.9033Z" fill="black"/>
<path d="M90.3344 56.3041L89.9126 52.1817L94.9878 46.7659L89.4176 47.3429L89.1114 44.3505L102.241 42.9905L102.547 45.9829L97.184 46.5384L103.008 50.4874L103.379 54.1164L96.6161 49.4766L90.3344 56.3041Z" fill="black"/>
<path d="M93.965 71.3895L86.6166 67.7689L87.9328 65.0642L99.7736 70.8982L98.4574 73.6029L88.8125 74.7012L88.7985 74.73L96.147 78.3506L94.8308 81.0554L82.99 75.2214L84.3062 72.5166L93.951 71.4183L93.965 71.3895Z" fill="black"/>
<path d="M85.8426 81.9518C87.1168 83.3737 87.7133 85.0145 87.6322 86.8739C87.5511 88.7334 86.8311 90.2795 85.4723 91.5122C84.1056 92.7522 82.503 93.3132 80.6644 93.1954C78.833 93.0855 77.2766 92.3156 75.9953 90.8857C74.7069 89.4478 74.0914 87.8099 74.1488 85.972C74.2134 84.142 74.9448 82.5927 76.3431 81.3241C77.7729 80.0268 79.3882 79.4399 81.1888 79.5633C82.9887 79.7019 84.5399 80.498 85.8426 81.9518ZM83.4371 84.1342C82.9744 83.6178 82.4718 83.2168 81.9294 82.9312C81.3942 82.6535 80.7973 82.5469 80.139 82.6113C79.4806 82.6758 78.8631 82.9696 78.2864 83.4928C77.4569 84.2453 77.089 85.0975 77.1829 86.0494C77.2688 87.0084 77.6748 87.893 78.4009 88.7033C79.1198 89.5056 79.9528 89.9957 80.8998 90.1735C81.846 90.3663 82.726 90.0937 83.5397 89.3554C84.3455 88.6244 84.7098 87.7682 84.6325 86.7869C84.5545 85.8208 84.156 84.9365 83.4371 84.1342Z" fill="black"/>
<path d="M59.8378 90.0136L64.1132 96.4126L63.8544 88.7064L67.0342 87.6714L74.6492 99.0744L71.4694 100.109L66.5527 92.1861L66.4767 92.2108L66.9659 101.575L64.8055 102.278L59.7519 94.3995L59.6758 94.4243L60.302 103.744L57.1374 104.774L56.6732 91.0436L59.8378 90.0136Z" fill="black"/>
</svg>
